# xmcd
#
# Track frame offsets: 
#        150
#        21066
#        44556
#        60452
#        93507
#        115620
#        142884
#        165516
#        191718
#        219606
#        240534
#        256031
#        265119
#        279536
#        303097
#
# Disc length: 4323 seconds
#
# Revision: 0
# Processed by: cddbd v1.5.2PL0 Copyright (c) Steve Scherf et al.
# Submitted via: ExactAudioCopy v0.95b4
#
DISCID=c610e10f
DTITLE=Various Artist - Blues
DYEAR=2009
DGENRE=Blues
TTITLE0=Why I sing the blues - BB King
TTITLE1=Darling you know I love You - BB King
TTITLE2=Caledonia - BB King
TTITLE3=All over again - BB King
TTITLE4=Everyday I have the blues - BB King
TTITLE5=Sweet little angel - BB King
TTITLE6=The thrill is gone - BB King
TTITLE7=Gues who - BB King
TTITLE8=Payin' the cost to be the boss - BB King
TTITLE9=Looking back over my day - John Lee Hookep
TTITLE10=Body and soul - Carmen McRae
TTITLE11=Them there eyes - Carmen McRae
TTITLE12=My funny valentine - Carmen McRae
TTITLE13=Upside down - Carmen McRae
TTITLE14=No morre blues - Carmen McRae
EXTD=
EXTT0=
EXTT1=
EXTT2=
EXTT3=
EXTT4=
EXTT5=
EXTT6=
EXTT7=
EXTT8=
EXTT9=
EXTT10=
EXTT11=
EXTT12=
EXTT13=
EXTT14=
PLAYORDER=
